<svg width="72" height="120" viewBox="0 0 72 120" fill="none" xmlns="http://www.w3.org/2000/svg">
<circle cx="35.5" cy="43.5" r="34.5" fill="#48BAFB"/>
<path d="M36.8199 77.6051L29.2199 67.6051C28.7195 66.9467 29.189 66 30.016 66H56.384C56.6965 66 56.991 66.1461 57.1801 66.3949L64.7801 76.3949C65.2805 77.0533 64.811 78 63.984 78H37.616C37.3035 78 37.009 77.8539 36.8199 77.6051Z" fill="#48BAFB"/>
<path fill-rule="evenodd" clip-rule="evenodd" d="M33.0703 27C33.0706 27 33.0709 27 33.0712 27C41.7972 27 48.8711 34.0739 48.8711 42.7999C48.8711 51.526 41.7972 58.5998 33.0712 58.5998C33.0709 58.5998 33.0706 58.5998 33.0703 58.5998V27Z" fill="#1A1B1E"/>
<path d="M27.3203 31C27.3203 28.7909 29.1112 27 31.3203 27H33.0657V58.5998H31.3203C29.1112 58.5998 27.3203 56.809 27.3203 54.5998V31Z" fill="#1A1B1E"/>
<path d="M11.1094 106.227L12.1084 107.494C12.7314 106.663 13.043 105.485 13.043 103.96C13.043 102.95 12.8962 102.091 12.6025 101.382C12.3089 100.666 11.89 100.125 11.3457 99.7598C10.8014 99.3945 10.1497 99.2155 9.39062 99.2227C8.63151 99.2155 7.97982 99.3981 7.43555 99.7705C6.89128 100.136 6.47233 100.676 6.17871 101.393C5.88509 102.109 5.73828 102.975 5.73828 103.992C5.73828 105.009 5.88509 105.876 6.17871 106.592C6.47233 107.308 6.89128 107.849 7.43555 108.214C7.97982 108.579 8.63151 108.762 9.39062 108.762C9.63411 108.762 9.84538 108.747 10.0244 108.719L8.12305 106.227H11.1094ZM2 103.992C2 102.324 2.31868 100.888 2.95605 99.6846C3.60059 98.4814 4.48145 97.5684 5.59863 96.9453C6.71582 96.3151 7.97982 96 9.39062 96C10.7943 96 12.0547 96.3151 13.1719 96.9453C14.2891 97.5684 15.1699 98.4814 15.8145 99.6846C16.459 100.881 16.7812 102.309 16.7812 103.971C16.7812 105.31 16.57 106.506 16.1475 107.559C15.7321 108.604 15.1413 109.478 14.375 110.18L16.6523 112.994H13.3223L12.1191 111.533C11.2812 111.834 10.3717 111.984 9.39062 111.984C7.97982 111.984 6.71582 111.669 5.59863 111.039C4.48145 110.409 3.60059 109.492 2.95605 108.289C2.31868 107.079 2 105.646 2 103.992Z" fill="#48BAFB"/>
<path d="M20.9226 102.424H18.4089L19.4402 96.2148H22.8347L20.9226 102.424Z" fill="#48BAFB"/>
<path d="M27.5561 111.941C26.6752 111.941 25.8803 111.712 25.1713 111.254C24.4623 110.796 23.9002 110.115 23.4848 109.213C23.0766 108.311 22.8725 107.222 22.8725 105.947C22.8725 104.637 23.0838 103.534 23.5063 102.639C23.9288 101.736 24.491 101.063 25.1928 100.619C25.9018 100.175 26.6824 99.9531 27.5346 99.9531C28.394 99.9531 29.0958 100.161 29.6401 100.576C30.1843 100.984 30.5854 101.493 30.8432 102.102H30.9291V96.2148H34.5385V111.77H30.9506V109.879H30.8432C30.5782 110.473 30.17 110.967 29.6186 111.361C29.0743 111.748 28.3868 111.941 27.5561 111.941ZM26.5893 105.926C26.5893 106.9 26.7791 107.673 27.1586 108.246C27.5454 108.819 28.086 109.105 28.7807 109.105C29.4754 109.105 30.0161 108.826 30.4028 108.268C30.7967 107.702 30.9936 106.936 30.9936 105.969C30.9936 104.98 30.8002 104.203 30.4135 103.638C30.0268 103.072 29.4825 102.789 28.7807 102.789C28.0789 102.789 27.5382 103.072 27.1586 103.638C26.7791 104.196 26.5893 104.959 26.5893 105.926Z" fill="#48BAFB"/>
<path d="M36.6603 100.104H40.1838V102.209H40.2912C40.4989 101.464 40.8426 100.902 41.3224 100.522C41.8094 100.136 42.3823 99.9388 43.0412 99.9316C43.3778 99.946 43.7215 99.9889 44.0724 100.061V103.219C43.9005 103.169 43.6714 103.129 43.3849 103.101C43.1056 103.065 42.8478 103.047 42.6115 103.047C42.1675 103.047 41.7664 103.147 41.4084 103.348C41.0574 103.541 40.7817 103.817 40.5812 104.175C40.3879 104.526 40.2912 104.93 40.2912 105.389V111.77H36.6603V100.104Z" fill="#48BAFB"/>
<path d="M50.3622 111.984C49.1662 111.984 48.1242 111.734 47.2362 111.232C46.3554 110.731 45.6786 110.029 45.2059 109.127C44.7333 108.217 44.497 107.165 44.497 105.969C44.497 104.773 44.7333 103.724 45.2059 102.821C45.6786 101.912 46.3554 101.206 47.2362 100.705C48.1242 100.204 49.1662 99.9531 50.3622 99.9531C51.5653 99.9531 52.6073 100.204 53.4882 100.705C54.369 101.206 55.0458 101.912 55.5184 102.821C55.9911 103.724 56.2274 104.773 56.2274 105.969C56.2274 107.165 55.9911 108.217 55.5184 109.127C55.0458 110.029 54.369 110.731 53.4882 111.232C52.6073 111.734 51.5653 111.984 50.3622 111.984ZM48.1923 105.904C48.1923 106.921 48.382 107.734 48.7616 108.343C49.1412 108.944 49.6818 109.249 50.3837 109.256C51.0568 109.249 51.5832 108.948 51.9628 108.354C52.3423 107.759 52.5321 106.971 52.5321 105.99C52.5321 104.98 52.3423 104.171 51.9628 103.562C51.5904 102.954 51.064 102.646 50.3837 102.639C49.689 102.646 49.1483 102.947 48.7616 103.541C48.382 104.135 48.1923 104.923 48.1923 105.904Z" fill="#48BAFB"/>
<path d="M57.8766 100.104H61.4645V102.102H61.5934C61.844 101.493 62.2415 100.984 62.7857 100.576C63.33 100.161 64.0283 99.9531 64.8805 99.9531C65.7327 99.9531 66.5097 100.175 67.2115 100.619C67.9205 101.063 68.4863 101.736 68.9088 102.639C69.3313 103.534 69.5426 104.637 69.5426 105.947C69.5426 107.222 69.3385 108.311 68.9303 109.213C68.5221 110.115 67.9635 110.796 67.2545 111.254C66.5527 111.712 65.7613 111.941 64.8805 111.941C64.0426 111.941 63.3479 111.748 62.7965 111.361C62.2451 110.967 61.844 110.473 61.5934 109.879H61.5074V116.152H57.8766V100.104ZM61.4215 105.926C61.4215 106.9 61.6148 107.673 62.0016 108.246C62.3954 108.819 62.9397 109.105 63.6344 109.105C64.329 109.105 64.8661 108.826 65.2457 108.268C65.6324 107.702 65.8258 106.936 65.8258 105.969C65.8258 104.988 65.636 104.214 65.2564 103.648C64.8841 103.076 64.3434 102.789 63.6344 102.789C62.9326 102.789 62.3883 103.068 62.0016 103.627C61.6148 104.186 61.4215 104.952 61.4215 105.926Z" fill="#48BAFB"/>
</svg>
