<svg width="32" height="32" viewBox="0 0 32 32" fill="none" xmlns="http://www.w3.org/2000/svg">
<circle cx="16" cy="16" r="16" fill="#48BAFB"/>
<path d="M16.4529 31.6058L13.7433 28.0406C13.2429 27.3822 13.7125 26.4355 14.5395 26.4355H25.421C25.7336 26.4355 26.0281 26.5816 26.2172 26.8305L28.9268 30.3957C29.4272 31.0541 28.9576 32.0008 28.1306 32.0008H17.249C16.9365 32.0008 16.642 31.8547 16.4529 31.6058Z" fill="#48BAFB"/>
<path fill-rule="evenodd" clip-rule="evenodd" d="M14.8723 8.34668C18.9189 8.34699 22.1992 11.6275 22.1992 15.6742C22.1992 19.7209 18.9189 23.0014 14.8723 23.0017V8.34668Z" fill="#1A1B1E"/>
<path d="M12.207 11.0122C12.207 9.54061 13.4 8.34766 14.8716 8.34766V23.0027C13.4 23.0027 12.207 21.8097 12.207 20.3381V11.0122Z" fill="#1A1B1E"/>
</svg>
