<svg width="26" height="26" viewBox="0 0 26 26" fill="none" xmlns="http://www.w3.org/2000/svg">
<circle cx="13" cy="13" r="13" fill="#DADCE1"/>
<path d="M13.3122 25.6053L11.3956 23.0836C10.8953 22.4252 11.3648 21.4785 12.1918 21.4785H20.5621C20.8746 21.4785 21.1691 21.6246 21.3582 21.8734L23.2748 24.3952C23.7752 25.0536 23.3056 26.0003 22.4786 26.0003H14.1083C13.7958 26.0003 13.5013 25.8542 13.3122 25.6053Z" fill="#DADCE1"/>
<path fill-rule="evenodd" clip-rule="evenodd" d="M12.0859 6.78125C15.3738 6.7815 18.0391 9.44692 18.0391 12.7348C18.0391 16.0228 15.3738 18.6882 12.0859 18.6884V6.78125Z" fill="#1A1B1E"/>
<path d="M9.91797 8.94619C9.91797 7.75053 10.8872 6.78125 12.0829 6.78125V18.6884C10.8872 18.6884 9.91797 17.7192 9.91797 16.5235V8.94619Z" fill="#1A1B1E"/>
</svg>
