<svg width="20" height="20" viewBox="0 0 20 20" fill="none" xmlns="http://www.w3.org/2000/svg">
<path d="M9.28671 1.19529C9.51122 0.504306 10.4888 0.504305 10.7133 1.19529L12.5258 6.77356C12.6262 7.08258 12.9142 7.2918 13.2391 7.2918H19.1044C19.831 7.2918 20.133 8.22151 19.5453 8.64856L14.8001 12.0961C14.5372 12.2871 14.4272 12.6256 14.5276 12.9346L16.3401 18.5129C16.5646 19.2039 15.7738 19.7785 15.186 19.3514L10.4408 15.9039C10.178 15.7129 9.82203 15.7129 9.55916 15.9039L4.814 19.3514C4.22622 19.7785 3.43536 19.2039 3.65987 18.5129L5.47236 12.9346C5.57276 12.6256 5.46277 12.2871 5.19991 12.0961L0.454746 8.64856C-0.133039 8.22151 0.169042 7.2918 0.895585 7.2918H6.76093C7.08584 7.2918 7.37381 7.08258 7.47422 6.77356L9.28671 1.19529Z" fill="#FFCB15"/>
</svg>
