<svg width="20" height="19" viewBox="0 0 20 19" fill="none" xmlns="http://www.w3.org/2000/svg">
<path d="M14.5835 0.597656C13.6451 0.612252 12.7272 0.874201 11.9224 1.35705C11.1177 1.8399 10.4546 2.52655 10.0001 3.34766C9.54566 2.52655 8.88257 1.8399 8.07783 1.35705C7.27308 0.874201 6.35517 0.612252 5.41679 0.597656C3.92091 0.662649 2.51155 1.31703 1.49661 2.41785C0.481678 3.51867 -0.0563308 4.97643 0.000128002 6.47266C0.000128002 10.2618 3.98846 14.4002 7.33346 17.206C8.08031 17.8336 9.02459 18.1777 10.0001 18.1777C10.9757 18.1777 11.9199 17.8336 12.6668 17.206C16.0118 14.4002 20.0001 10.2618 20.0001 6.47266C20.0566 4.97643 19.5186 3.51867 18.5036 2.41785C17.4887 1.31703 16.0793 0.662649 14.5835 0.597656Z" fill="#64666D"/>
</svg>
